<svg xmlns="http://www.w3.org/2000/svg" aria-hidden="true" style="position: absolute; width: 0px; height: 0px; overflow: hidden;"><defs><symbol id="icon-database-switch-filled" viewBox="0 0 32 32" data-icontype="filled"><path d="M18.966 30.166a.793.793 0 0 1-1.132 0l-3.2-3.2a.795.795 0 0 1 0-1.132l3.2-3.2a.797.797 0 0 1 1.306.254l.002.005a.799.799 0 0 1-.174.874l-1.835 1.834h8.938l-1.835-1.834a.797.797 0 0 1 .254-1.306l.005-.002a.799.799 0 0 1 .874.174l3.2 3.2a.793.793 0 0 1 0 1.132l-3.2 3.2a.797.797 0 0 1-1.306-.254l-.002-.005a.799.799 0 0 1 .174-.874l1.835-1.834h-8.938l1.835 1.834a.793.793 0 0 1 0 1.132zM16 12.8c5.302 0 9.6-2.149 9.6-4.8S21.302 3.2 16 3.2 6.4 5.349 6.4 8s4.298 4.8 9.6 4.8zm-2.498 15.298a2.397 2.397 0 0 1-.001-3.396l3.2-3.2a2.384 2.384 0 0 1 2.632-.514l-.016-.006a2.4 2.4 0 0 1 1.421 1.67l.003.016a2.402 2.402 0 0 1-.085 1.348l.005-.017h1.875a2.4 2.4 0 0 1 2.263-3.2c.272.003.544.051.8.146v-9.554c-.31.293-.643.56-.997.8-.352.237-.72.45-1.099.64-.44.225-.975.451-1.526.641l-.092.027a18.63 18.63 0 0 1-5.886.899l-.148.001c-2.051 0-4.025-.332-5.87-.944l.132.038a12.86 12.86 0 0 1-1.692-.703l.075.034a9.9 9.9 0 0 1-1.134-.662l.035.022a7.96 7.96 0 0 1-1.001-.797l.004.004v12.608c0 2.325 3.312 4.253 7.701 4.694l-.598-.597z"></path></symbol><symbol id="icon-book-database-filled" viewBox="0 0 32 32" data-icontype="filled"><path d="M14.076 11.231c-.652.351-.743.669-.743.769s.091.419.743.769c.613.329 1.527.564 2.591.564s1.979-.235 2.591-.564c.652-.351.743-.669.743-.769s-.091-.419-.743-.769c-.615-.329-1.527-.564-2.591-.564s-1.979.235-2.591.564zM20 17.333v-2.699c-.927.449-2.097.699-3.333.699s-2.407-.249-3.333-.699v2.699c0 .1.091.417.743.769.613.329 1.527.564 2.591.564s1.979-.235 2.591-.564c.652-.352.743-.669.743-.769zM5.333 6a3.333 3.333 0 0 1 3.333-3.333h15.333A3.333 3.333 0 0 1 27.332 6v19a1 1 0 0 1-1 1h-19c0 .736.597 1.333 1.333 1.333h17.667a1 1 0 0 1 0 2H8.665A3.333 3.333 0 0 1 5.332 26V6zm7.795 3.469c-.915.493-1.795 1.344-1.795 2.531v5.333c0 1.188.88 2.037 1.795 2.531.957.515 2.209.803 3.539.803s2.581-.288 3.539-.803c.916-.493 1.795-1.343 1.795-2.531V12c0-1.188-.88-2.037-1.795-2.531-.957-.515-2.209-.803-3.539-.803s-2.581.288-3.539.803z"></path></symbol><symbol id="icon-database-window-filled" viewBox="0 0 32 32" data-icontype="filled"><path d="M16 12.8c5.302 0 9.6-2.149 9.6-4.8S21.302 3.2 16 3.2 6.4 5.349 6.4 8s4.298 4.8 9.6 4.8zm7.504.026c.752-.376 1.483-.854 2.096-1.434V14.4h-7.2a4 4 0 0 0-4 4V28c0 .253.024.499.069.739C9.895 28.371 6.4 26.39 6.4 24V11.392c.613.579 1.344 1.058 2.096 1.434C10.499 13.828 13.155 14.4 16 14.4s5.501-.573 7.504-1.574zM16 18.4a2.4 2.4 0 0 1 2.4-2.4H28a2.4 2.4 0 0 1 2.4 2.4v.8H16v-.8zm0 2.4h14.4V28a2.4 2.4 0 0 1-2.4 2.4h-9.6A2.4 2.4 0 0 1 16 28v-7.2z"></path></symbol><symbol id="icon-channel-dismiss-filled" viewBox="0 0 32 32" data-icontype="filled"><path d="M8.167 4a4.168 4.168 0 0 0-4.034 3.118l-.006.029a2.667 2.667 0 1 1-.144 4.988l.018.006v11.693a4.167 4.167 0 0 0 4.167 4.167h7.863a8.54 8.54 0 0 1-1.363-4.653v-.014.001c0-1.579.422-3.059 1.16-4.333h-4.327a.833.833 0 0 1 0-1.666h5.58a8.617 8.617 0 0 1 6.242-2.667h.011-.001c1.718 0 3.32.5 4.667 1.363V8.169a4.167 4.167 0 0 0-4.167-4.167H8.166zm2.5 9.5c0-.46.373-.833.833-.833h9a.833.833 0 0 1 0 1.666h-9a.833.833 0 0 1-.833-.833zM5 8h-.003c-.919 0-1.664.745-1.664 1.664v.006c0 .919.745 1.664 1.664 1.664H5A1.667 1.667 0 0 0 5 8zm25.667 15.333a7.333 7.333 0 1 1-14.666 0 7.333 7.333 0 0 1 14.666 0zm-3.529-2.862a.667.667 0 0 0-.943-.943l-2.862 2.862-2.862-2.862a.667.667 0 0 0-.943.943l2.862 2.862-2.862 2.862a.667.667 0 0 0 .943.943l2.862-2.862 2.862 2.862a.667.667 0 0 0 .943-.943l-2.862-2.862 2.862-2.862z"></path></symbol><symbol id="icon-link-dismiss-filled" viewBox="0 0 32 32" data-icontype="filled"><path d="M12 6.667a1.333 1.333 0 0 1 .163 2.656l-.006.001-.156.009H9.33a4 4 0 0 0-.242 7.993l.011.001.235.007h2.667a1.333 1.333 0 0 1 .163 2.656l-.006.001-.156.009H9.335a6.667 6.667 0 0 1-.304-13.326l.015-.001.289-.007h2.667zm10.667 0h.003a6.667 6.667 0 0 1 5.887 9.799l.017-.036a8.572 8.572 0 0 0-2.287-1.249l-.06-.019a4 4 0 0 0-3.313-5.821l-.011-.001-.236-.007H20a1.333 1.333 0 0 1-.163-2.656l.006-.001.156-.009h2.667zM9.333 12h13.333a1.333 1.333 0 0 1 .163 2.656l-.006.001-.156.009H9.334a1.333 1.333 0 0 1-.163-2.656l.006-.001.156-.009zm21.334 11.333a7.333 7.333 0 1 1-14.666 0 7.333 7.333 0 1 1 14.666 0zm-9.528-3.138a.668.668 0 0 0-.945.945l2.196 2.195-2.196 2.195a.668.668 0 0 0 .945.945l2.195-2.196 2.195 2.196a.668.668 0 0 0 .945-.945l-2.196-2.195 2.196-2.195a.668.668 0 0 0-.945-.945l-2.195 2.196-2.195-2.196z"></path></symbol></defs></svg>