<svg xmlns="http://www.w3.org/2000/svg" aria-hidden="true"
    style="position: absolute; width: 0px; height: 0px; overflow: hidden;">
    <defs>
        <symbol id="icon-database-switch-filled" viewBox="0 0 32 32" data-icontype="filled">
            <path
                d="M18.966 30.166a.793.793 0 0 1-1.132 0l-3.2-3.2a.795.795 0 0 1 0-1.132l3.2-3.2a.797.797 0 0 1 1.306.254l.002.005a.799.799 0 0 1-.174.874l-1.835 1.834h8.938l-1.835-1.834a.797.797 0 0 1 .254-1.306l.005-.002a.799.799 0 0 1 .874.174l3.2 3.2a.793.793 0 0 1 0 1.132l-3.2 3.2a.797.797 0 0 1-1.306-.254l-.002-.005a.799.799 0 0 1 .174-.874l1.835-1.834h-8.938l1.835 1.834a.793.793 0 0 1 0 1.132zM16 12.8c5.302 0 9.6-2.149 9.6-4.8S21.302 3.2 16 3.2 6.4 5.349 6.4 8s4.298 4.8 9.6 4.8zm-2.498 15.298a2.397 2.397 0 0 1-.001-3.396l3.2-3.2a2.384 2.384 0 0 1 2.632-.514l-.016-.006a2.4 2.4 0 0 1 1.421 1.67l.003.016a2.402 2.402 0 0 1-.085 1.348l.005-.017h1.875a2.4 2.4 0 0 1 2.263-3.2c.272.003.544.051.8.146v-9.554c-.31.293-.643.56-.997.8-.352.237-.72.45-1.099.64-.44.225-.975.451-1.526.641l-.092.027a18.63 18.63 0 0 1-5.886.899l-.148.001c-2.051 0-4.025-.332-5.87-.944l.132.038a12.86 12.86 0 0 1-1.692-.703l.075.034a9.9 9.9 0 0 1-1.134-.662l.035.022a7.96 7.96 0 0 1-1.001-.797l.004.004v12.608c0 2.325 3.312 4.253 7.701 4.694l-.598-.597z"></path>
        </symbol>
        <symbol id="icon-book-database-filled" viewBox="0 0 32 32" data-icontype="filled">
            <path
                d="M14.076 11.231c-.652.351-.743.669-.743.769s.091.419.743.769c.613.329 1.527.564 2.591.564s1.979-.235 2.591-.564c.652-.351.743-.669.743-.769s-.091-.419-.743-.769c-.615-.329-1.527-.564-2.591-.564s-1.979.235-2.591.564zM20 17.333v-2.699c-.927.449-2.097.699-3.333.699s-2.407-.249-3.333-.699v2.699c0 .1.091.417.743.769.613.329 1.527.564 2.591.564s1.979-.235 2.591-.564c.652-.352.743-.669.743-.769zM5.333 6a3.333 3.333 0 0 1 3.333-3.333h15.333A3.333 3.333 0 0 1 27.332 6v19a1 1 0 0 1-1 1h-19c0 .736.597 1.333 1.333 1.333h17.667a1 1 0 0 1 0 2H8.665A3.333 3.333 0 0 1 5.332 26V6zm7.795 3.469c-.915.493-1.795 1.344-1.795 2.531v5.333c0 1.188.88 2.037 1.795 2.531.957.515 2.209.803 3.539.803s2.581-.288 3.539-.803c.916-.493 1.795-1.343 1.795-2.531V12c0-1.188-.88-2.037-1.795-2.531-.957-.515-2.209-.803-3.539-.803s-2.581.288-3.539.803z"></path>
        </symbol>
        <symbol id="icon-database-window-filled" viewBox="0 0 32 32" data-icontype="filled">
            <path
                d="M16 12.8c5.302 0 9.6-2.149 9.6-4.8S21.302 3.2 16 3.2 6.4 5.349 6.4 8s4.298 4.8 9.6 4.8zm7.504.026c.752-.376 1.483-.854 2.096-1.434V14.4h-7.2a4 4 0 0 0-4 4V28c0 .253.024.499.069.739C9.895 28.371 6.4 26.39 6.4 24V11.392c.613.579 1.344 1.058 2.096 1.434C10.499 13.828 13.155 14.4 16 14.4s5.501-.573 7.504-1.574zM16 18.4a2.4 2.4 0 0 1 2.4-2.4H28a2.4 2.4 0 0 1 2.4 2.4v.8H16v-.8zm0 2.4h14.4V28a2.4 2.4 0 0 1-2.4 2.4h-9.6A2.4 2.4 0 0 1 16 28v-7.2z"></path>
        </symbol>
        <symbol id="icon-channel-dismiss-filled" viewBox="0 0 32 32" data-icontype="filled">
            <path
                d="M8.167 4a4.168 4.168 0 0 0-4.034 3.118l-.006.029a2.667 2.667 0 1 1-.144 4.988l.018.006v11.693a4.167 4.167 0 0 0 4.167 4.167h7.863a8.54 8.54 0 0 1-1.363-4.653v-.014.001c0-1.579.422-3.059 1.16-4.333h-4.327a.833.833 0 0 1 0-1.666h5.58a8.617 8.617 0 0 1 6.242-2.667h.011-.001c1.718 0 3.32.5 4.667 1.363V8.169a4.167 4.167 0 0 0-4.167-4.167H8.166zm2.5 9.5c0-.46.373-.833.833-.833h9a.833.833 0 0 1 0 1.666h-9a.833.833 0 0 1-.833-.833zM5 8h-.003c-.919 0-1.664.745-1.664 1.664v.006c0 .919.745 1.664 1.664 1.664H5A1.667 1.667 0 0 0 5 8zm25.667 15.333a7.333 7.333 0 1 1-14.666 0 7.333 7.333 0 0 1 14.666 0zm-3.529-2.862a.667.667 0 0 0-.943-.943l-2.862 2.862-2.862-2.862a.667.667 0 0 0-.943.943l2.862 2.862-2.862 2.862a.667.667 0 0 0 .943.943l2.862-2.862 2.862 2.862a.667.667 0 0 0 .943-.943l-2.862-2.862 2.862-2.862z"></path>
        </symbol>
        <symbol id="icon-link-dismiss-filled" viewBox="0 0 32 32" data-icontype="filled">
            <path
                d="M12 6.667a1.333 1.333 0 0 1 .163 2.656l-.006.001-.156.009H9.33a4 4 0 0 0-.242 7.993l.011.001.235.007h2.667a1.333 1.333 0 0 1 .163 2.656l-.006.001-.156.009H9.335a6.667 6.667 0 0 1-.304-13.326l.015-.001.289-.007h2.667zm10.667 0h.003a6.667 6.667 0 0 1 5.887 9.799l.017-.036a8.572 8.572 0 0 0-2.287-1.249l-.06-.019a4 4 0 0 0-3.313-5.821l-.011-.001-.236-.007H20a1.333 1.333 0 0 1-.163-2.656l.006-.001.156-.009h2.667zM9.333 12h13.333a1.333 1.333 0 0 1 .163 2.656l-.006.001-.156.009H9.334a1.333 1.333 0 0 1-.163-2.656l.006-.001.156-.009zm21.334 11.333a7.333 7.333 0 1 1-14.666 0 7.333 7.333 0 1 1 14.666 0zm-9.528-3.138a.668.668 0 0 0-.945.945l2.196 2.195-2.196 2.195a.668.668 0 0 0 .945.945l2.195-2.196 2.195 2.196a.668.668 0 0 0 .945-.945l-2.196-2.195 2.196-2.195a.668.668 0 0 0-.945-.945l-2.195 2.196-2.195-2.196z"></path>
        </symbol>
        <symbol id="icon-text-font-info-regular" viewBox="0 0 32 32" data-icontype="regular">
            <path
                d="M12.68 2.667c.427.006.789.279.927.66l.002.007 4.241 11.953a8.783 8.783 0 0 0-1.524 1.61l-.017.025-3.683-10.379-4.177 10.791h7.58a8.452 8.452 0 0 0-.928 1.939l-.018.061H7.674l-2.075 5.36a1 1 0 1 1-1.864-.727l-.002.007 8-20.667c.149-.378.51-.64.933-.64h.014-.001zm9.987 18.666v4a.667.667 0 1 0 1.334 0v-4a.667.667 0 1 0-1.334 0zm1.666-3a1 1 0 0 1-2 0 1 1 0 0 1 2 0zM30.667 22a7.333 7.333 0 1 1-14.666 0 7.333 7.333 0 1 1 14.666 0zm-1.334 0a6 6 0 1 0-12 0 6 6 0 1 0 12 0z"></path>
        </symbol>
        <symbol id="icon-color-background-regular" viewBox="0 0 32 32" data-icontype="regular">
            <path
                d="M15.123 17.325c-.251.545-.456 1.184-.456 1.841 0 .98.383 1.901 1.033 2.552a3.194 3.194 0 0 0 2.276.948h.025H18c1.961 0 3.333-1.645 3.333-3.5 0-.657-.205-1.296-.456-1.841a9.221 9.221 0 0 0-.917-1.538l.018.026c-.316-.44-.631-.817-.865-1.083l-.409-.44a1 1 0 0 0-1.412.003l-.007.007c-.077.083-.285.301-.4.431-.233.265-.548.64-.865 1.083a9.083 9.083 0 0 0-.873 1.456l-.024.056zm3.23-.346c.269.375.523.781.707 1.181.187.407.273.747.273 1.007 0 .921-.641 1.5-1.333 1.5-.333 0-.656-.133-.9-.377-.261-.26-.433-.645-.433-1.123 0-.259.087-.6.273-1.007.183-.4.437-.807.707-1.18.119-.167.24-.324.353-.467.115.143.235.299.353.467zM9 1.333a1 1 0 0 0-1 1v2.341a2.345 2.345 0 0 0-.124.116l-5.657 5.657c-.482.483-.781 1.149-.781 1.885s.298 1.403.781 1.885l4.713 4.715c.483.483 1.149.781 1.886.781s1.403-.299 1.886-.781l5.656-5.657c.482-.483.781-1.149.781-1.885s-.298-1.403-.781-1.885L11.648 4.79c-.427-.429-1-.712-1.638-.77L10 4.019V2.332a1 1 0 0 0-1-1zM8 7.495v.839a1 1 0 0 0 2 0v-2.28a.664.664 0 0 1 .232.152l4.715 4.713a.668.668 0 0 1 .192.412v.002H4.162l3.839-3.839zm.347 10.024-4.171-4.171h9.285l-4.172 4.171a.663.663 0 0 1-.942 0zm-5.68 5.814v-6.784l2 2v4.784c0 .736.597 1.333 1.333 1.333h20c.736 0 1.333-.597 1.333-1.333V8.666c0-.736-.597-1.333-1.333-1.333h-9.921l-2-2H26a3.333 3.333 0 0 1 3.333 3.333v14.667A3.333 3.333 0 0 1 26 26.666H6a3.333 3.333 0 0 1-3.333-3.333z"></path>
        </symbol>
        <symbol id="icon-color-filled" viewBox="0 0 32 32" data-icontype="filled">
            <path
                d="M5.119 7.811c3.92-5.221 12.04-6.74 17.819-3.147 5.707 3.547 7.805 10.369 5.467 16.769-2.207 6.044-8.021 8.437-12.212 5.397-1.569-1.139-2.179-2.567-2.472-4.885l-.141-1.316-.06-.531c-.164-1.245-.415-1.803-.94-2.096-.713-.397-1.189-.407-2.127-.044l-.468.195-.239.104c-1.352.587-2.251.793-3.388.555l-.267-.063-.219-.063C2.153 17.534 1.603 12.49 5.119 7.81zm17.237 6.296a1.667 1.667 0 1 0 3.217-.875l.003.012a1.667 1.667 0 1 0-3.217.875l-.003-.012zm.66 4.65a1.667 1.667 0 1 0 3.216-.875l.003.012a1.667 1.667 0 0 0-3.216.874l-.002-.011zm-3.299-8.654a1.667 1.667 0 1 0 3.217-.875l.003.012a1.667 1.667 0 1 0-3.217.875l-.003-.012zM19.68 22.1a1.667 1.667 0 1 0 3.217-.875l.003.012a1.667 1.667 0 1 0-3.217.875l-.003-.012zM15.017 8.807a1.667 1.667 0 1 0 3.218-.873l.003.012a1.667 1.667 0 0 0-3.217.873l-.003-.012z"></path>
        </symbol>
        <symbol id="icon-color-background-filled" viewBox="0 0 32 32" data-icontype="filled">
            <path
                d="M2.667 16.552v6.781A3.333 3.333 0 0 0 6 26.666h20a3.333 3.333 0 0 0 3.333-3.333V8.666A3.333 3.333 0 0 0 26 5.333H14.075l3.229 3.229a3.989 3.989 0 0 1 1.173 2.829 4 4 0 0 1-.222 1.319l.009-.028c.507.056 1 .28 1.387.668l.004.003.004.005.013.012.027.027c.138.141.273.288.404.438l.01.012c.256.288.6.7.949 1.187.347.48.727 1.077 1.027 1.733.293.637.579 1.475.579 2.399 0 2.473-1.859 4.833-4.667 4.833s-4.667-2.36-4.667-4.833c0-.387.049-.759.129-1.107l-1.816 1.816c-.724.724-1.724 1.172-2.829 1.172s-2.105-.448-2.829-1.172l-3.323-3.324zm12.456.773c-.251.545-.456 1.184-.456 1.841 0 1.853 1.372 3.5 3.333 3.5 1.96 0 3.333-1.647 3.333-3.5 0-.657-.205-1.296-.456-1.841a9.221 9.221 0 0 0-.917-1.538l.018.026a13.95 13.95 0 0 0-.878-1.097l.012.014-.407-.437a1 1 0 0 0-1.414 0l-.008.007c-.077.083-.285.301-.4.431-.233.265-.548.64-.865 1.083a9.083 9.083 0 0 0-.873 1.456l-.024.056zM18 16.512c.115.144.235.3.353.467.269.375.523.781.707 1.181.187.407.273.747.273 1.007 0 .921-.641 1.5-1.333 1.5-.693 0-1.333-.579-1.333-1.5 0-.259.085-.6.273-1.007.183-.4.436-.807.705-1.181.12-.167.24-.323.355-.467zM9 1.333a1 1 0 0 0-1 1v2.341a2.345 2.345 0 0 0-.124.116l-5.657 5.657c-.482.483-.781 1.149-.781 1.885s.298 1.403.781 1.885l4.713 4.715c.483.483 1.149.781 1.886.781s1.403-.299 1.886-.781l5.656-5.657c.482-.483.781-1.149.781-1.885s-.298-1.403-.781-1.885L11.648 4.79c-.427-.429-1-.712-1.638-.77L10 4.019V2.332a1 1 0 0 0-1-1zM8 7.495v.839a1 1 0 0 0 2 0v-2.28a.664.664 0 0 1 .232.152l4.715 4.713c.12.12.184.273.193.429H4.147L8 7.493zm.347 10.024-4.171-4.171h9.285l-4.172 4.171a.663.663 0 0 1-.942 0z"></path>
        </symbol>
        <symbol id="icon-info-filled" viewBox="0 0 32 32" data-icontype="filled">
            <path
                d="M2.286 16c0 7.574 6.141 13.714 13.714 13.714S29.714 23.573 29.714 16 23.573 2.286 16 2.286 2.286 8.427 2.286 16zm15.143-6.857a1.43 1.43 0 0 1-2.858 0 1.43 1.43 0 0 1 2.858 0zM16 12.571c.631 0 1.143.512 1.143 1.143v9.143a1.143 1.143 0 0 1-2.286 0v-9.143c0-.631.512-1.143 1.143-1.143z"></path>
        </symbol>
        <symbol id="icon-info-regular" viewBox="0 0 32 32" data-icontype="regular">
            <path
                d="M17.143 9.143a1.143 1.143 0 0 1-2.286 0 1.143 1.143 0 0 1 2.286 0zm-2 4.286V22a.857.857 0 0 0 1.714 0v-8.571a.857.857 0 0 0-1.714 0zM2.286 16C2.286 8.426 8.427 2.286 16 2.286S29.714 8.427 29.714 16 23.573 29.714 16 29.714 2.286 23.573 2.286 16zM16 4C9.373 4 4 9.373 4 16s5.373 12 12 12 12-5.373 12-12S22.627 4 16 4z"></path>
        </symbol>

        <symbol id="icon-plug-disconnected-filled" viewBox="0 0 32 32" data-icontype="filled">
            <path
                d="M25.989 7.231a6.24 6.24 0 0 1 1.276 3.797 6.27 6.27 0 0 1-1.841 4.445L23.2 17.695a.854.854 0 0 1-1.212 0l-7.678-7.677a.854.854 0 0 1 0-1.212l2.223-2.223a6.267 6.267 0 0 1 4.446-1.842c1.433 0 2.754.48 3.812 1.287l-.015-.011 3.479-3.479a.857.857 0 0 1 1.212 1.211l-3.479 3.48zM14.603 14.03a.857.857 0 0 0-1.211-1.212l-2.432 2.429-.939-.939a.854.854 0 0 0-1.212 0L6.586 16.53a6.267 6.267 0 0 0-1.842 4.446c0 1.433.48 2.754 1.287 3.812l-.011-.015-3.478 3.48a.856.856 0 1 0 1.211 1.212l3.48-3.479a6.24 6.24 0 0 0 3.797 1.276 6.265 6.265 0 0 0 4.445-1.841l2.222-2.223a.854.854 0 0 0 0-1.212l-.945-.946 2.43-2.429a.857.857 0 1 0-1.213-1.211l-2.429 2.429-3.368-3.368 2.43-2.43z"></path>
        </symbol>
        <symbol id="icon-plug-connected-filled" viewBox="0 0 32 32" data-icontype="filled">
            <path
                d="M25.987 7.427a7.946 7.946 0 0 1 1.682 4.907 7.997 7.997 0 0 1-4.164 7.021l-.042.021c-.865.468-1.907.18-2.603-.515l-7.72-7.721c-.696-.696-.984-1.737-.517-2.603 1.379-2.524 4.014-4.207 7.043-4.207 1.858 0 3.568.633 4.925 1.696l-.018-.013 3.053-3.053a1 1 0 1 1 1.415 1.413l-3.053 3.053zM4.373 29.04l3.053-3.053a7.946 7.946 0 0 0 4.907 1.682 7.997 7.997 0 0 0 7.021-4.164l.021-.042c.468-.865.18-1.907-.516-2.603l-7.72-7.72c-.696-.696-1.737-.984-2.603-.517-2.524 1.379-4.207 4.014-4.207 7.043 0 1.858.633 3.568 1.696 4.925l-.013-.018-3.053 3.053a1 1 0 1 0 1.413 1.415z"></path>
        </symbol>
    </defs>
</svg>